<?xml version="1.0" encoding="utf-8"?>
<!-- Generator: Adobe Illustrator 24.0.0, SVG Export Plug-In . SVG Version: 6.00 Build 0)  -->
<svg version="1.1" id="Calque_1" xmlns="http://www.w3.org/2000/svg" xmlns:xlink="http://www.w3.org/1999/xlink" x="0px" y="0px"
	 viewBox="0 0 481.1 339.1" style="enable-background:new 0 0 481.1 339.1;" xml:space="preserve">
<style type="text/css">
	.st0{fill:#FFFFFF;}
</style>
<g>
	<path class="st0" d="M102,338.9L0,58h38.6l73.2,201.4L185.2,58H224L121.7,338.9H102z"/>
	<path class="st0" d="M225.8,0l122.8,339.1h-38l-57.4-157.5h-74.4l-36,99.4h-38.8L206.1,0H225.8z M240,145.2L216,79.4l-23.9,65.8
		H240z"/>
	<g>
		<path class="st0" d="M288.9,132.8c20.9-20.7,45.9-31.1,75.3-31.1c27.2,0,53.3,11.1,78.3,33.4l27.2-24.8
			C436.4,80,401.2,64.8,364.1,64.8c-32.6,0-61.2,9.5-85.8,28.4L288.9,132.8z"/>
		<path class="st0" d="M377.2,294.8c-9.5,1.1-18.7,1-27.6-0.3l14.7,37.5c5.6,0,11.2-0.4,17-1c36.9-4.1,70.1-23.1,99.8-57l-29.8-21.2
			C428.9,277.8,404.2,291.7,377.2,294.8z"/>
	</g>
</g>
</svg>
